<?xml version="1.0" encoding="UTF-8" standalone="no"?>
<!DOCTYPE svg PUBLIC "-//W3C//DTD SVG 1.1//EN"
 "http://www.w3.org/Graphics/SVG/1.1/DTD/svg11.dtd">
<!-- Generated by graphviz version 11.0.0 (20240428.1522)
 -->
<!-- Pages: 1 -->
<svg width="2951pt" height="225pt"
 viewBox="0.00 0.00 2951.00 225.00" xmlns="http://www.w3.org/2000/svg" xmlns:xlink="http://www.w3.org/1999/xlink">
<g id="graph0" class="graph" transform="scale(1 1) rotate(0) translate(4 221)">
<polygon fill="white" stroke="none" points="-4,4 -4,-221 2947,-221 2947,4 -4,4"/>
<!-- 2356029714512 -->
<g id="node1" class="node">
<title>2356029714512</title>
<polygon fill="none" stroke="black" points="327.75,-55.5 327.75,-91.5 543,-91.5 543,-55.5 327.75,-55.5"/>
<text text-anchor="middle" x="354.12" y="-68.2" font-family="Times New Roman,serif" font-size="14.00">x2*w2</text>
<polyline fill="none" stroke="black" points="380.5,-55.75 380.5,-91.5"/>
<text text-anchor="middle" x="420.75" y="-68.2" font-family="Times New Roman,serif" font-size="14.00">data 0.0000</text>
<polyline fill="none" stroke="black" points="461,-55.75 461,-91.5"/>
<text text-anchor="middle" x="502" y="-68.2" font-family="Times New Roman,serif" font-size="14.00">grad 0.5000</text>
</g>
<!-- 2356029714960+ -->
<g id="node11" class="node">
<title>2356029714960+</title>
<ellipse fill="none" stroke="black" cx="608.25" cy="-100.5" rx="27" ry="18"/>
<text text-anchor="middle" x="608.25" y="-95.08" font-family="Times New Roman,serif" font-size="14.00">+</text>
</g>
<!-- 2356029714512&#45;&gt;2356029714960+ -->
<g id="edge26" class="edge">
<title>2356029714512&#45;&gt;2356029714960+</title>
<path fill="none" stroke="black" d="M543.14,-90.37C552.77,-91.89 562.01,-93.35 570.33,-94.67"/>
<polygon fill="black" stroke="black" points="569.51,-98.08 579.94,-96.18 570.61,-91.17 569.51,-98.08"/>
</g>
<!-- 2356029714512* -->
<g id="node2" class="node">
<title>2356029714512*</title>
<ellipse fill="none" stroke="black" cx="262.5" cy="-73.5" rx="27" ry="18"/>
<text text-anchor="middle" x="262.5" y="-68.08" font-family="Times New Roman,serif" font-size="14.00">*</text>
</g>
<!-- 2356029714512*&#45;&gt;2356029714512 -->
<g id="edge1" class="edge">
<title>2356029714512*&#45;&gt;2356029714512</title>
<path fill="none" stroke="black" d="M289.82,-73.5C297.5,-73.5 306.41,-73.5 315.98,-73.5"/>
<polygon fill="black" stroke="black" points="315.97,-77 325.97,-73.5 315.97,-70 315.97,-77"/>
</g>
<!-- 2356029714576 -->
<g id="node3" class="node">
<title>2356029714576</title>
<polygon fill="none" stroke="black" points="2.25,-55.5 2.25,-91.5 197.25,-91.5 197.25,-55.5 2.25,-55.5"/>
<text text-anchor="middle" x="18.5" y="-68.2" font-family="Times New Roman,serif" font-size="14.00">w2</text>
<polyline fill="none" stroke="black" points="34.75,-55.75 34.75,-91.5"/>
<text text-anchor="middle" x="75" y="-68.2" font-family="Times New Roman,serif" font-size="14.00">data 1.0000</text>
<polyline fill="none" stroke="black" points="115.25,-55.75 115.25,-91.5"/>
<text text-anchor="middle" x="156.25" y="-68.2" font-family="Times New Roman,serif" font-size="14.00">grad 0.0000</text>
</g>
<!-- 2356029714576&#45;&gt;2356029714512* -->
<g id="edge14" class="edge">
<title>2356029714576&#45;&gt;2356029714512*</title>
<path fill="none" stroke="black" d="M197.51,-73.5C206.8,-73.5 215.79,-73.5 223.94,-73.5"/>
<polygon fill="black" stroke="black" points="223.72,-77 233.72,-73.5 223.72,-70 223.72,-77"/>
</g>
<!-- 2356029714640 -->
<g id="node4" class="node">
<title>2356029714640</title>
<polygon fill="none" stroke="black" points="714.38,-137.5 714.38,-173.5 900.38,-173.5 900.38,-137.5 714.38,-137.5"/>
<text text-anchor="middle" x="726.12" y="-150.2" font-family="Times New Roman,serif" font-size="14.00">b</text>
<polyline fill="none" stroke="black" points="737.88,-137.75 737.88,-173.5"/>
<text text-anchor="middle" x="778.12" y="-150.2" font-family="Times New Roman,serif" font-size="14.00">data 6.8814</text>
<polyline fill="none" stroke="black" points="818.38,-137.75 818.38,-173.5"/>
<text text-anchor="middle" x="859.38" y="-150.2" font-family="Times New Roman,serif" font-size="14.00">grad 0.5000</text>
</g>
<!-- 2356029715024+ -->
<g id="node13" class="node">
<title>2356029715024+</title>
<ellipse fill="none" stroke="black" cx="1006.5" cy="-127.5" rx="27" ry="18"/>
<text text-anchor="middle" x="1006.5" y="-122.08" font-family="Times New Roman,serif" font-size="14.00">+</text>
</g>
<!-- 2356029714640&#45;&gt;2356029715024+ -->
<g id="edge29" class="edge">
<title>2356029714640&#45;&gt;2356029715024+</title>
<path fill="none" stroke="black" d="M900.59,-142.4C924.65,-138.98 949.22,-135.49 968.53,-132.75"/>
<polygon fill="black" stroke="black" points="968.92,-136.23 978.32,-131.36 967.93,-129.3 968.92,-136.23"/>
</g>
<!-- 2356029714704 -->
<g id="node5" class="node">
<title>2356029714704</title>
<polygon fill="none" stroke="black" points="325.5,-110.5 325.5,-146.5 545.25,-146.5 545.25,-110.5 325.5,-110.5"/>
<text text-anchor="middle" x="351.88" y="-123.2" font-family="Times New Roman,serif" font-size="14.00">x1*w1</text>
<polyline fill="none" stroke="black" points="378.25,-110.75 378.25,-146.5"/>
<text text-anchor="middle" x="420.75" y="-123.2" font-family="Times New Roman,serif" font-size="14.00">data &#45;6.0000</text>
<polyline fill="none" stroke="black" points="463.25,-110.75 463.25,-146.5"/>
<text text-anchor="middle" x="504.25" y="-123.2" font-family="Times New Roman,serif" font-size="14.00">grad 0.5000</text>
</g>
<!-- 2356029714704&#45;&gt;2356029714960+ -->
<g id="edge15" class="edge">
<title>2356029714704&#45;&gt;2356029714960+</title>
<path fill="none" stroke="black" d="M545.56,-110.61C554.32,-109.17 562.71,-107.8 570.34,-106.55"/>
<polygon fill="black" stroke="black" points="570.83,-110.02 580.13,-104.94 569.69,-103.11 570.83,-110.02"/>
</g>
<!-- 2356029714704* -->
<g id="node6" class="node">
<title>2356029714704*</title>
<ellipse fill="none" stroke="black" cx="262.5" cy="-128.5" rx="27" ry="18"/>
<text text-anchor="middle" x="262.5" y="-123.08" font-family="Times New Roman,serif" font-size="14.00">*</text>
</g>
<!-- 2356029714704*&#45;&gt;2356029714704 -->
<g id="edge2" class="edge">
<title>2356029714704*&#45;&gt;2356029714704</title>
<path fill="none" stroke="black" d="M289.82,-128.5C296.93,-128.5 305.11,-128.5 313.89,-128.5"/>
<polygon fill="black" stroke="black" points="313.78,-132 323.78,-128.5 313.78,-125 313.78,-132"/>
</g>
<!-- 2356029714832 -->
<g id="node7" class="node">
<title>2356029714832</title>
<polygon fill="none" stroke="black" points="1069.5,-27.5 1069.5,-63.5 1256.25,-63.5 1256.25,-27.5 1069.5,-27.5"/>
<text text-anchor="middle" x="1079.38" y="-40.2" font-family="Times New Roman,serif" font-size="14.00"> </text>
<polyline fill="none" stroke="black" points="1089.25,-27.75 1089.25,-63.5"/>
<text text-anchor="middle" x="1129.5" y="-40.2" font-family="Times New Roman,serif" font-size="14.00">data 2.0000</text>
<polyline fill="none" stroke="black" points="1169.75,-27.75 1169.75,-63.5"/>
<text text-anchor="middle" x="1213" y="-40.2" font-family="Times New Roman,serif" font-size="14.00">grad &#45;0.5320</text>
</g>
<!-- 2356029714896* -->
<g id="node9" class="node">
<title>2356029714896*</title>
<ellipse fill="none" stroke="black" cx="1319.25" cy="-45.5" rx="27" ry="18"/>
<text text-anchor="middle" x="1319.25" y="-40.08" font-family="Times New Roman,serif" font-size="14.00">*</text>
</g>
<!-- 2356029714832&#45;&gt;2356029714896* -->
<g id="edge32" class="edge">
<title>2356029714832&#45;&gt;2356029714896*</title>
<path fill="none" stroke="black" d="M1256.35,-45.5C1264.76,-45.5 1272.92,-45.5 1280.4,-45.5"/>
<polygon fill="black" stroke="black" points="1280.4,-49 1290.4,-45.5 1280.4,-42 1280.4,-49"/>
</g>
<!-- 2356029714896 -->
<g id="node8" class="node">
<title>2356029714896</title>
<polygon fill="none" stroke="black" points="1382.25,-20.5 1382.25,-56.5 1569,-56.5 1569,-20.5 1382.25,-20.5"/>
<text text-anchor="middle" x="1392.12" y="-33.2" font-family="Times New Roman,serif" font-size="14.00"> </text>
<polyline fill="none" stroke="black" points="1402,-20.75 1402,-56.5"/>
<text text-anchor="middle" x="1442.25" y="-33.2" font-family="Times New Roman,serif" font-size="14.00">data 1.7627</text>
<polyline fill="none" stroke="black" points="1482.5,-20.75 1482.5,-56.5"/>
<text text-anchor="middle" x="1525.75" y="-33.2" font-family="Times New Roman,serif" font-size="14.00">grad &#45;0.6036</text>
</g>
<!-- 2356029715408exp -->
<g id="node17" class="node">
<title>2356029715408exp</title>
<ellipse fill="none" stroke="black" cx="1632" cy="-35.5" rx="27" ry="18"/>
<text text-anchor="middle" x="1632" y="-30.07" font-family="Times New Roman,serif" font-size="14.00">exp</text>
</g>
<!-- 2356029714896&#45;&gt;2356029715408exp -->
<g id="edge20" class="edge">
<title>2356029714896&#45;&gt;2356029715408exp</title>
<path fill="none" stroke="black" d="M1569.1,-36.7C1577.61,-36.54 1585.87,-36.38 1593.42,-36.23"/>
<polygon fill="black" stroke="black" points="1593.22,-39.73 1603.15,-36.04 1593.09,-32.74 1593.22,-39.73"/>
</g>
<!-- 2356029714896*&#45;&gt;2356029714896 -->
<g id="edge3" class="edge">
<title>2356029714896*&#45;&gt;2356029714896</title>
<path fill="none" stroke="black" d="M1346.44,-44.31C1353.57,-43.99 1361.77,-43.62 1370.48,-43.22"/>
<polygon fill="black" stroke="black" points="1370.42,-46.73 1380.25,-42.78 1370.1,-39.74 1370.42,-46.73"/>
</g>
<!-- 2356029714960 -->
<g id="node10" class="node">
<title>2356029714960</title>
<polygon fill="none" stroke="black" points="671.25,-82.5 671.25,-118.5 943.5,-118.5 943.5,-82.5 671.25,-82.5"/>
<text text-anchor="middle" x="723.88" y="-95.2" font-family="Times New Roman,serif" font-size="14.00">x1*w1 + x2*w2</text>
<polyline fill="none" stroke="black" points="776.5,-82.75 776.5,-118.5"/>
<text text-anchor="middle" x="819" y="-95.2" font-family="Times New Roman,serif" font-size="14.00">data &#45;6.0000</text>
<polyline fill="none" stroke="black" points="861.5,-82.75 861.5,-118.5"/>
<text text-anchor="middle" x="902.5" y="-95.2" font-family="Times New Roman,serif" font-size="14.00">grad 0.5000</text>
</g>
<!-- 2356029714960&#45;&gt;2356029715024+ -->
<g id="edge22" class="edge">
<title>2356029714960&#45;&gt;2356029715024+</title>
<path fill="none" stroke="black" d="M943.4,-118.99C952.34,-120.22 960.81,-121.38 968.46,-122.43"/>
<polygon fill="black" stroke="black" points="967.87,-125.88 978.25,-123.77 968.82,-118.94 967.87,-125.88"/>
</g>
<!-- 2356029714960+&#45;&gt;2356029714960 -->
<g id="edge4" class="edge">
<title>2356029714960+&#45;&gt;2356029714960</title>
<path fill="none" stroke="black" d="M635.43,-100.5C642.57,-100.5 650.85,-100.5 659.84,-100.5"/>
<polygon fill="black" stroke="black" points="659.6,-104 669.6,-100.5 659.6,-97 659.6,-104"/>
</g>
<!-- 2356029715024 -->
<g id="node12" class="node">
<title>2356029715024</title>
<polygon fill="none" stroke="black" points="1070.25,-109.5 1070.25,-145.5 1255.5,-145.5 1255.5,-109.5 1070.25,-109.5"/>
<text text-anchor="middle" x="1081.62" y="-122.2" font-family="Times New Roman,serif" font-size="14.00">n</text>
<polyline fill="none" stroke="black" points="1093,-109.75 1093,-145.5"/>
<text text-anchor="middle" x="1133.25" y="-122.2" font-family="Times New Roman,serif" font-size="14.00">data 0.8814</text>
<polyline fill="none" stroke="black" points="1173.5,-109.75 1173.5,-145.5"/>
<text text-anchor="middle" x="1214.5" y="-122.2" font-family="Times New Roman,serif" font-size="14.00">grad 0.5000</text>
</g>
<!-- 2356029715024&#45;&gt;2356029714896* -->
<g id="edge19" class="edge">
<title>2356029715024&#45;&gt;2356029714896*</title>
<path fill="none" stroke="black" d="M1198.52,-109.1C1225.24,-94.9 1261.85,-75.46 1287.53,-61.82"/>
<polygon fill="black" stroke="black" points="1288.95,-65.03 1296.13,-57.25 1285.66,-58.85 1288.95,-65.03"/>
</g>
<!-- 2356029715088* -->
<g id="node15" class="node">
<title>2356029715088*</title>
<ellipse fill="none" stroke="black" cx="1319.25" cy="-196.5" rx="27" ry="18"/>
<text text-anchor="middle" x="1319.25" y="-191.07" font-family="Times New Roman,serif" font-size="14.00">*</text>
</g>
<!-- 2356029715024&#45;&gt;2356029715088* -->
<g id="edge21" class="edge">
<title>2356029715024&#45;&gt;2356029715088*</title>
<path fill="none" stroke="black" d="M1205.24,-145.99C1230.53,-157.29 1262.41,-171.54 1285.86,-182.02"/>
<polygon fill="black" stroke="black" points="1284.37,-185.19 1294.92,-186.07 1287.22,-178.8 1284.37,-185.19"/>
</g>
<!-- 2356029715024+&#45;&gt;2356029715024 -->
<g id="edge5" class="edge">
<title>2356029715024+&#45;&gt;2356029715024</title>
<path fill="none" stroke="black" d="M1033.69,-127.5C1041.09,-127.5 1049.62,-127.5 1058.69,-127.5"/>
<polygon fill="black" stroke="black" points="1058.48,-131 1068.48,-127.5 1058.48,-124 1058.48,-131"/>
</g>
<!-- 2356029715088 -->
<g id="node14" class="node">
<title>2356029715088</title>
<polygon fill="none" stroke="black" points="1384.5,-179.5 1384.5,-215.5 1566.75,-215.5 1566.75,-179.5 1384.5,-179.5"/>
<text text-anchor="middle" x="1394.38" y="-192.2" font-family="Times New Roman,serif" font-size="14.00"> </text>
<polyline fill="none" stroke="black" points="1404.25,-179.75 1404.25,-215.5"/>
<text text-anchor="middle" x="1444.5" y="-192.2" font-family="Times New Roman,serif" font-size="14.00">data 1.7627</text>
<polyline fill="none" stroke="black" points="1484.75,-179.75 1484.75,-215.5"/>
<text text-anchor="middle" x="1525.75" y="-192.2" font-family="Times New Roman,serif" font-size="14.00">grad 0.8536</text>
</g>
<!-- 2356029062288exp -->
<g id="node22" class="node">
<title>2356029062288exp</title>
<ellipse fill="none" stroke="black" cx="1632" cy="-197.5" rx="27" ry="18"/>
<text text-anchor="middle" x="1632" y="-192.07" font-family="Times New Roman,serif" font-size="14.00">exp</text>
</g>
<!-- 2356029715088&#45;&gt;2356029062288exp -->
<g id="edge13" class="edge">
<title>2356029715088&#45;&gt;2356029062288exp</title>
<path fill="none" stroke="black" d="M1566.87,-197.5C1576.09,-197.5 1585.06,-197.5 1593.22,-197.5"/>
<polygon fill="black" stroke="black" points="1593.03,-201 1603.03,-197.5 1593.03,-194 1593.03,-201"/>
</g>
<!-- 2356029715088*&#45;&gt;2356029715088 -->
<g id="edge6" class="edge">
<title>2356029715088*&#45;&gt;2356029715088</title>
<path fill="none" stroke="black" d="M1346.44,-196.67C1354.17,-196.72 1363.13,-196.78 1372.66,-196.84"/>
<polygon fill="black" stroke="black" points="1372.52,-200.34 1382.55,-196.9 1372.57,-193.34 1372.52,-200.34"/>
</g>
<!-- 2356029715408 -->
<g id="node16" class="node">
<title>2356029715408</title>
<polygon fill="none" stroke="black" points="1695,-15.5 1695,-51.5 1881.75,-51.5 1881.75,-15.5 1695,-15.5"/>
<text text-anchor="middle" x="1704.88" y="-28.2" font-family="Times New Roman,serif" font-size="14.00"> </text>
<polyline fill="none" stroke="black" points="1714.75,-15.75 1714.75,-51.5"/>
<text text-anchor="middle" x="1755" y="-28.2" font-family="Times New Roman,serif" font-size="14.00">data 5.8284</text>
<polyline fill="none" stroke="black" points="1795.25,-15.75 1795.25,-51.5"/>
<text text-anchor="middle" x="1838.5" y="-28.2" font-family="Times New Roman,serif" font-size="14.00">grad &#45;0.1036</text>
</g>
<!-- 2356029715536+ -->
<g id="node20" class="node">
<title>2356029715536+</title>
<ellipse fill="none" stroke="black" cx="1944.75" cy="-88.5" rx="27" ry="18"/>
<text text-anchor="middle" x="1944.75" y="-83.08" font-family="Times New Roman,serif" font-size="14.00">+</text>
</g>
<!-- 2356029715408&#45;&gt;2356029715536+ -->
<g id="edge17" class="edge">
<title>2356029715408&#45;&gt;2356029715536+</title>
<path fill="none" stroke="black" d="M1853.8,-51.98C1863.23,-54.98 1872.79,-58.2 1881.75,-61.5 1891.6,-65.12 1902.12,-69.51 1911.66,-73.68"/>
<polygon fill="black" stroke="black" points="1909.97,-76.76 1920.53,-77.63 1912.82,-70.36 1909.97,-76.76"/>
</g>
<!-- 2356029715408exp&#45;&gt;2356029715408 -->
<g id="edge7" class="edge">
<title>2356029715408exp&#45;&gt;2356029715408</title>
<path fill="none" stroke="black" d="M1659.19,-35.16C1666.32,-35.07 1674.52,-34.96 1683.23,-34.85"/>
<polygon fill="black" stroke="black" points="1683.04,-38.35 1693,-34.72 1682.95,-31.35 1683.04,-38.35"/>
</g>
<!-- 2356029715472 -->
<g id="node18" class="node">
<title>2356029715472</title>
<polygon fill="none" stroke="black" points="1695,-70.5 1695,-106.5 1881.75,-106.5 1881.75,-70.5 1695,-70.5"/>
<text text-anchor="middle" x="1704.88" y="-83.2" font-family="Times New Roman,serif" font-size="14.00"> </text>
<polyline fill="none" stroke="black" points="1714.75,-70.75 1714.75,-106.5"/>
<text text-anchor="middle" x="1755" y="-83.2" font-family="Times New Roman,serif" font-size="14.00">data 1.0000</text>
<polyline fill="none" stroke="black" points="1795.25,-70.75 1795.25,-106.5"/>
<text text-anchor="middle" x="1838.5" y="-83.2" font-family="Times New Roman,serif" font-size="14.00">grad &#45;0.1036</text>
</g>
<!-- 2356029715472&#45;&gt;2356029715536+ -->
<g id="edge24" class="edge">
<title>2356029715472&#45;&gt;2356029715536+</title>
<path fill="none" stroke="black" d="M1881.85,-88.5C1890.26,-88.5 1898.42,-88.5 1905.9,-88.5"/>
<polygon fill="black" stroke="black" points="1905.9,-92 1915.9,-88.5 1905.9,-85 1905.9,-92"/>
</g>
<!-- 2356029715536 -->
<g id="node19" class="node">
<title>2356029715536</title>
<polygon fill="none" stroke="black" points="2007.75,-70.5 2007.75,-106.5 2194.5,-106.5 2194.5,-70.5 2007.75,-70.5"/>
<text text-anchor="middle" x="2017.62" y="-83.2" font-family="Times New Roman,serif" font-size="14.00"> </text>
<polyline fill="none" stroke="black" points="2027.5,-70.75 2027.5,-106.5"/>
<text text-anchor="middle" x="2067.75" y="-83.2" font-family="Times New Roman,serif" font-size="14.00">data 6.8284</text>
<polyline fill="none" stroke="black" points="2108,-70.75 2108,-106.5"/>
<text text-anchor="middle" x="2151.25" y="-83.2" font-family="Times New Roman,serif" font-size="14.00">grad &#45;0.1036</text>
</g>
<!-- 2356029715728**&#45;1 -->
<g id="node24" class="node">
<title>2356029715728**&#45;1</title>
<ellipse fill="none" stroke="black" cx="2321.62" cy="-88.5" rx="27.11" ry="18"/>
<text text-anchor="middle" x="2321.62" y="-83.08" font-family="Times New Roman,serif" font-size="14.00">**&#45;1</text>
</g>
<!-- 2356029715536&#45;&gt;2356029715728**&#45;1 -->
<g id="edge28" class="edge">
<title>2356029715536&#45;&gt;2356029715728**&#45;1</title>
<path fill="none" stroke="black" d="M2194.79,-88.5C2225.78,-88.5 2258.58,-88.5 2282.93,-88.5"/>
<polygon fill="black" stroke="black" points="2282.64,-92 2292.64,-88.5 2282.64,-85 2282.64,-92"/>
</g>
<!-- 2356029715536+&#45;&gt;2356029715536 -->
<g id="edge8" class="edge">
<title>2356029715536+&#45;&gt;2356029715536</title>
<path fill="none" stroke="black" d="M1971.94,-88.5C1979.07,-88.5 1987.27,-88.5 1995.98,-88.5"/>
<polygon fill="black" stroke="black" points="1995.75,-92 2005.75,-88.5 1995.75,-85 1995.75,-92"/>
</g>
<!-- 2356029062288 -->
<g id="node21" class="node">
<title>2356029062288</title>
<polygon fill="none" stroke="black" points="1697.25,-180.5 1697.25,-216.5 1879.5,-216.5 1879.5,-180.5 1697.25,-180.5"/>
<text text-anchor="middle" x="1707.12" y="-193.2" font-family="Times New Roman,serif" font-size="14.00"> </text>
<polyline fill="none" stroke="black" points="1717,-180.75 1717,-216.5"/>
<text text-anchor="middle" x="1757.25" y="-193.2" font-family="Times New Roman,serif" font-size="14.00">data 5.8284</text>
<polyline fill="none" stroke="black" points="1797.5,-180.75 1797.5,-216.5"/>
<text text-anchor="middle" x="1838.5" y="-193.2" font-family="Times New Roman,serif" font-size="14.00">grad 0.1464</text>
</g>
<!-- 2356029714000+ -->
<g id="node33" class="node">
<title>2356029714000+</title>
<ellipse fill="none" stroke="black" cx="1944.75" cy="-143.5" rx="27" ry="18"/>
<text text-anchor="middle" x="1944.75" y="-138.07" font-family="Times New Roman,serif" font-size="14.00">+</text>
</g>
<!-- 2356029062288&#45;&gt;2356029714000+ -->
<g id="edge27" class="edge">
<title>2356029062288&#45;&gt;2356029714000+</title>
<path fill="none" stroke="black" d="M1856.34,-180.13C1864.95,-177.42 1873.6,-174.51 1881.75,-171.5 1891.73,-167.81 1902.36,-163.25 1911.96,-158.89"/>
<polygon fill="black" stroke="black" points="1913.29,-162.13 1920.88,-154.74 1910.34,-155.78 1913.29,-162.13"/>
</g>
<!-- 2356029062288exp&#45;&gt;2356029062288 -->
<g id="edge9" class="edge">
<title>2356029062288exp&#45;&gt;2356029062288</title>
<path fill="none" stroke="black" d="M1659.19,-197.67C1666.92,-197.72 1675.88,-197.78 1685.41,-197.84"/>
<polygon fill="black" stroke="black" points="1685.27,-201.34 1695.3,-197.9 1685.32,-194.34 1685.27,-201.34"/>
</g>
<!-- 2356029715728 -->
<g id="node23" class="node">
<title>2356029715728</title>
<polygon fill="none" stroke="black" points="2448.75,-74.5 2448.75,-110.5 2631,-110.5 2631,-74.5 2448.75,-74.5"/>
<text text-anchor="middle" x="2458.62" y="-87.2" font-family="Times New Roman,serif" font-size="14.00"> </text>
<polyline fill="none" stroke="black" points="2468.5,-74.75 2468.5,-110.5"/>
<text text-anchor="middle" x="2508.75" y="-87.2" font-family="Times New Roman,serif" font-size="14.00">data 0.1464</text>
<polyline fill="none" stroke="black" points="2549,-74.75 2549,-110.5"/>
<text text-anchor="middle" x="2590" y="-87.2" font-family="Times New Roman,serif" font-size="14.00">grad 4.8284</text>
</g>
<!-- 2356029715856* -->
<g id="node28" class="node">
<title>2356029715856*</title>
<ellipse fill="none" stroke="black" cx="2694" cy="-115.5" rx="27" ry="18"/>
<text text-anchor="middle" x="2694" y="-110.08" font-family="Times New Roman,serif" font-size="14.00">*</text>
</g>
<!-- 2356029715728&#45;&gt;2356029715856* -->
<g id="edge25" class="edge">
<title>2356029715728&#45;&gt;2356029715856*</title>
<path fill="none" stroke="black" d="M2631.12,-106.15C2639.88,-107.47 2648.37,-108.75 2656.12,-109.92"/>
<polygon fill="black" stroke="black" points="2655.33,-113.34 2665.74,-111.38 2656.38,-106.42 2655.33,-113.34"/>
</g>
<!-- 2356029715728**&#45;1&#45;&gt;2356029715728 -->
<g id="edge10" class="edge">
<title>2356029715728**&#45;1&#45;&gt;2356029715728</title>
<path fill="none" stroke="black" d="M2349.14,-88.99C2371.34,-89.4 2404.5,-90.01 2436.92,-90.61"/>
<polygon fill="black" stroke="black" points="2436.76,-94.11 2446.83,-90.8 2436.89,-87.11 2436.76,-94.11"/>
</g>
<!-- 2356029713680 -->
<g id="node25" class="node">
<title>2356029713680</title>
<polygon fill="none" stroke="black" points="1.5,-165.5 1.5,-201.5 198,-201.5 198,-165.5 1.5,-165.5"/>
<text text-anchor="middle" x="16.25" y="-178.2" font-family="Times New Roman,serif" font-size="14.00">x1</text>
<polyline fill="none" stroke="black" points="31,-165.75 31,-201.5"/>
<text text-anchor="middle" x="71.25" y="-178.2" font-family="Times New Roman,serif" font-size="14.00">data 2.0000</text>
<polyline fill="none" stroke="black" points="111.5,-165.75 111.5,-201.5"/>
<text text-anchor="middle" x="154.75" y="-178.2" font-family="Times New Roman,serif" font-size="14.00">grad &#45;1.5000</text>
</g>
<!-- 2356029713680&#45;&gt;2356029714704* -->
<g id="edge18" class="edge">
<title>2356029713680&#45;&gt;2356029714704*</title>
<path fill="none" stroke="black" d="M173.43,-165.03C182.28,-162.37 191.14,-159.51 199.5,-156.5 209.59,-152.87 220.33,-148.29 229.98,-143.89"/>
<polygon fill="black" stroke="black" points="231.37,-147.1 238.95,-139.7 228.41,-140.76 231.37,-147.1"/>
</g>
<!-- 2356029713744 -->
<g id="node26" class="node">
<title>2356029713744</title>
<polygon fill="none" stroke="black" points="3.75,-0.5 3.75,-36.5 195.75,-36.5 195.75,-0.5 3.75,-0.5"/>
<text text-anchor="middle" x="18.5" y="-13.2" font-family="Times New Roman,serif" font-size="14.00">x2</text>
<polyline fill="none" stroke="black" points="33.25,-0.75 33.25,-36.5"/>
<text text-anchor="middle" x="73.5" y="-13.2" font-family="Times New Roman,serif" font-size="14.00">data 0.0000</text>
<polyline fill="none" stroke="black" points="113.75,-0.75 113.75,-36.5"/>
<text text-anchor="middle" x="154.75" y="-13.2" font-family="Times New Roman,serif" font-size="14.00">grad 0.5000</text>
</g>
<!-- 2356029713744&#45;&gt;2356029714512* -->
<g id="edge23" class="edge">
<title>2356029713744&#45;&gt;2356029714512*</title>
<path fill="none" stroke="black" d="M170.45,-36.99C180.27,-39.97 190.19,-43.17 199.5,-46.5 209.46,-50.06 220.09,-54.46 229.68,-58.67"/>
<polygon fill="black" stroke="black" points="228.04,-61.77 238.6,-62.66 230.9,-55.38 228.04,-61.77"/>
</g>
<!-- 2356029715856 -->
<g id="node27" class="node">
<title>2356029715856</title>
<polygon fill="none" stroke="black" points="2757,-97.5 2757,-133.5 2943,-133.5 2943,-97.5 2757,-97.5"/>
<text text-anchor="middle" x="2768.75" y="-110.2" font-family="Times New Roman,serif" font-size="14.00">o</text>
<polyline fill="none" stroke="black" points="2780.5,-97.75 2780.5,-133.5"/>
<text text-anchor="middle" x="2820.75" y="-110.2" font-family="Times New Roman,serif" font-size="14.00">data 0.7071</text>
<polyline fill="none" stroke="black" points="2861,-97.75 2861,-133.5"/>
<text text-anchor="middle" x="2902" y="-110.2" font-family="Times New Roman,serif" font-size="14.00">grad 1.0000</text>
</g>
<!-- 2356029715856*&#45;&gt;2356029715856 -->
<g id="edge11" class="edge">
<title>2356029715856*&#45;&gt;2356029715856</title>
<path fill="none" stroke="black" d="M2721.47,-115.5C2728.61,-115.5 2736.78,-115.5 2745.46,-115.5"/>
<polygon fill="black" stroke="black" points="2745.19,-119 2755.19,-115.5 2745.19,-112 2745.19,-119"/>
</g>
<!-- 2356028919184 -->
<g id="node29" class="node">
<title>2356028919184</title>
<polygon fill="none" stroke="black" points="1695,-125.5 1695,-161.5 1881.75,-161.5 1881.75,-125.5 1695,-125.5"/>
<text text-anchor="middle" x="1704.88" y="-138.2" font-family="Times New Roman,serif" font-size="14.00"> </text>
<polyline fill="none" stroke="black" points="1714.75,-125.75 1714.75,-161.5"/>
<text text-anchor="middle" x="1757.25" y="-138.2" font-family="Times New Roman,serif" font-size="14.00">data &#45;1.0000</text>
<polyline fill="none" stroke="black" points="1799.75,-125.75 1799.75,-161.5"/>
<text text-anchor="middle" x="1840.75" y="-138.2" font-family="Times New Roman,serif" font-size="14.00">grad 0.1464</text>
</g>
<!-- 2356028919184&#45;&gt;2356029714000+ -->
<g id="edge16" class="edge">
<title>2356028919184&#45;&gt;2356029714000+</title>
<path fill="none" stroke="black" d="M1881.85,-143.5C1890.26,-143.5 1898.42,-143.5 1905.9,-143.5"/>
<polygon fill="black" stroke="black" points="1905.9,-147 1915.9,-143.5 1905.9,-140 1905.9,-147"/>
</g>
<!-- 2356029713872 -->
<g id="node30" class="node">
<title>2356029713872</title>
<polygon fill="none" stroke="black" points="0,-110.5 0,-146.5 199.5,-146.5 199.5,-110.5 0,-110.5"/>
<text text-anchor="middle" x="16.25" y="-123.2" font-family="Times New Roman,serif" font-size="14.00">w1</text>
<polyline fill="none" stroke="black" points="32.5,-110.75 32.5,-146.5"/>
<text text-anchor="middle" x="75" y="-123.2" font-family="Times New Roman,serif" font-size="14.00">data &#45;3.0000</text>
<polyline fill="none" stroke="black" points="117.5,-110.75 117.5,-146.5"/>
<text text-anchor="middle" x="158.5" y="-123.2" font-family="Times New Roman,serif" font-size="14.00">grad 1.0000</text>
</g>
<!-- 2356029713872&#45;&gt;2356029714704* -->
<g id="edge33" class="edge">
<title>2356029713872&#45;&gt;2356029714704*</title>
<path fill="none" stroke="black" d="M199.81,-128.5C208.19,-128.5 216.28,-128.5 223.69,-128.5"/>
<polygon fill="black" stroke="black" points="223.58,-132 233.58,-128.5 223.58,-125 223.58,-132"/>
</g>
<!-- 2356028366352 -->
<g id="node31" class="node">
<title>2356028366352</title>
<polygon fill="none" stroke="black" points="1071.75,-178.5 1071.75,-214.5 1254,-214.5 1254,-178.5 1071.75,-178.5"/>
<text text-anchor="middle" x="1081.62" y="-191.2" font-family="Times New Roman,serif" font-size="14.00"> </text>
<polyline fill="none" stroke="black" points="1091.5,-178.75 1091.5,-214.5"/>
<text text-anchor="middle" x="1131.75" y="-191.2" font-family="Times New Roman,serif" font-size="14.00">data 2.0000</text>
<polyline fill="none" stroke="black" points="1172,-178.75 1172,-214.5"/>
<text text-anchor="middle" x="1213" y="-191.2" font-family="Times New Roman,serif" font-size="14.00">grad 0.7523</text>
</g>
<!-- 2356028366352&#45;&gt;2356029715088* -->
<g id="edge31" class="edge">
<title>2356028366352&#45;&gt;2356029715088*</title>
<path fill="none" stroke="black" d="M1254.12,-196.5C1263.34,-196.5 1272.31,-196.5 1280.47,-196.5"/>
<polygon fill="black" stroke="black" points="1280.28,-200 1290.28,-196.5 1280.28,-193 1280.28,-200"/>
</g>
<!-- 2356029714000 -->
<g id="node32" class="node">
<title>2356029714000</title>
<polygon fill="none" stroke="black" points="2230.5,-125.5 2230.5,-161.5 2412.75,-161.5 2412.75,-125.5 2230.5,-125.5"/>
<text text-anchor="middle" x="2240.38" y="-138.2" font-family="Times New Roman,serif" font-size="14.00"> </text>
<polyline fill="none" stroke="black" points="2250.25,-125.75 2250.25,-161.5"/>
<text text-anchor="middle" x="2290.5" y="-138.2" font-family="Times New Roman,serif" font-size="14.00">data 4.8284</text>
<polyline fill="none" stroke="black" points="2330.75,-125.75 2330.75,-161.5"/>
<text text-anchor="middle" x="2371.75" y="-138.2" font-family="Times New Roman,serif" font-size="14.00">grad 0.1464</text>
</g>
<!-- 2356029714000&#45;&gt;2356029715856* -->
<g id="edge30" class="edge">
<title>2356029714000&#45;&gt;2356029715856*</title>
<path fill="none" stroke="black" d="M2413.04,-136.9C2474.51,-132.38 2557.67,-126.19 2631,-120.5 2638.88,-119.89 2647.33,-119.22 2655.38,-118.57"/>
<polygon fill="black" stroke="black" points="2655.56,-122.07 2665.25,-117.77 2655,-115.09 2655.56,-122.07"/>
</g>
<!-- 2356029714000+&#45;&gt;2356029714000 -->
<g id="edge12" class="edge">
<title>2356029714000+&#45;&gt;2356029714000</title>
<path fill="none" stroke="black" d="M1972.11,-143.5C2022.54,-143.5 2135.09,-143.5 2218.72,-143.5"/>
<polygon fill="black" stroke="black" points="2218.55,-147 2228.55,-143.5 2218.55,-140 2218.55,-147"/>
</g>
</g>
</svg>
