<?xml version="1.0" encoding="UTF-8" standalone="no"?>
<!DOCTYPE svg PUBLIC "-//W3C//DTD SVG 1.1//EN"
 "http://www.w3.org/Graphics/SVG/1.1/DTD/svg11.dtd">
<!-- Generated by graphviz version 11.0.0 (20240428.1522)
 -->
<!-- Pages: 1 -->
<svg width="1148pt" height="127pt"
 viewBox="0.00 0.00 1148.00 127.00" xmlns="http://www.w3.org/2000/svg" xmlns:xlink="http://www.w3.org/1999/xlink">
<g id="graph0" class="graph" transform="scale(1 1) rotate(0) translate(4 123)">
<polygon fill="white" stroke="none" points="-4,4 -4,-123 1144,-123 1144,4 -4,4"/>
<!-- 2356028741136 -->
<g id="node1" class="node">
<title>2356028741136</title>
<polygon fill="none" stroke="black" points="948.75,-54.5 948.75,-90.5 1140,-90.5 1140,-54.5 948.75,-54.5"/>
<text text-anchor="middle" x="960.88" y="-67.2" font-family="Times New Roman,serif" font-size="14.00">L</text>
<polyline fill="none" stroke="black" points="973,-54.75 973,-90.5"/>
<text text-anchor="middle" x="1015.5" y="-67.2" font-family="Times New Roman,serif" font-size="14.00">data &#45;0.0997</text>
<polyline fill="none" stroke="black" points="1058,-54.75 1058,-90.5"/>
<text text-anchor="middle" x="1099" y="-67.2" font-family="Times New Roman,serif" font-size="14.00">grad 1.0000</text>
</g>
<!-- 2356028741136tanh -->
<g id="node2" class="node">
<title>2356028741136tanh</title>
<ellipse fill="none" stroke="black" cx="885.75" cy="-72.5" rx="27" ry="18"/>
<text text-anchor="middle" x="885.75" y="-67.08" font-family="Times New Roman,serif" font-size="14.00">tanh</text>
</g>
<!-- 2356028741136tanh&#45;&gt;2356028741136 -->
<g id="edge1" class="edge">
<title>2356028741136tanh&#45;&gt;2356028741136</title>
<path fill="none" stroke="black" d="M912.97,-72.5C920.13,-72.5 928.36,-72.5 937.12,-72.5"/>
<polygon fill="black" stroke="black" points="936.96,-76 946.96,-72.5 936.96,-69 936.96,-76"/>
</g>
<!-- 2356029123216 -->
<g id="node3" class="node">
<title>2356029123216</title>
<polygon fill="none" stroke="black" points="319.5,-82.5 319.5,-118.5 504,-118.5 504,-82.5 319.5,-82.5"/>
<text text-anchor="middle" x="330.5" y="-95.2" font-family="Times New Roman,serif" font-size="14.00">e</text>
<polyline fill="none" stroke="black" points="341.5,-82.75 341.5,-118.5"/>
<text text-anchor="middle" x="381.75" y="-95.2" font-family="Times New Roman,serif" font-size="14.00">data 5.9000</text>
<polyline fill="none" stroke="black" points="422,-82.75 422,-118.5"/>
<text text-anchor="middle" x="463" y="-95.2" font-family="Times New Roman,serif" font-size="14.00">grad 0.9901</text>
</g>
<!-- 2356029477648+ -->
<g id="node7" class="node">
<title>2356029477648+</title>
<ellipse fill="none" stroke="black" cx="570" cy="-72.5" rx="27" ry="18"/>
<text text-anchor="middle" x="570" y="-67.08" font-family="Times New Roman,serif" font-size="14.00">+</text>
</g>
<!-- 2356029123216&#45;&gt;2356029477648+ -->
<g id="edge7" class="edge">
<title>2356029123216&#45;&gt;2356029477648+</title>
<path fill="none" stroke="black" d="M504.09,-84.13C514.01,-82.35 523.64,-80.63 532.3,-79.08"/>
<polygon fill="black" stroke="black" points="532.75,-82.55 541.98,-77.34 531.52,-75.66 532.75,-82.55"/>
</g>
<!-- 2356028743888 -->
<g id="node4" class="node">
<title>2356028743888</title>
<polygon fill="none" stroke="black" points="316.5,-27.5 316.5,-63.5 507,-63.5 507,-27.5 316.5,-27.5"/>
<text text-anchor="middle" x="328.25" y="-40.2" font-family="Times New Roman,serif" font-size="14.00">d</text>
<polyline fill="none" stroke="black" points="340,-27.75 340,-63.5"/>
<text text-anchor="middle" x="382.5" y="-40.2" font-family="Times New Roman,serif" font-size="14.00">data &#45;6.0000</text>
<polyline fill="none" stroke="black" points="425,-27.75 425,-63.5"/>
<text text-anchor="middle" x="466" y="-40.2" font-family="Times New Roman,serif" font-size="14.00">grad 0.9901</text>
</g>
<!-- 2356028743888&#45;&gt;2356029477648+ -->
<g id="edge8" class="edge">
<title>2356028743888&#45;&gt;2356029477648+</title>
<path fill="none" stroke="black" d="M507.25,-61.83C516.04,-63.35 524.54,-64.82 532.28,-66.15"/>
<polygon fill="black" stroke="black" points="531.44,-69.56 541.89,-67.81 532.63,-62.66 531.44,-69.56"/>
</g>
<!-- 2356028743888* -->
<g id="node5" class="node">
<title>2356028743888*</title>
<ellipse fill="none" stroke="black" cx="253.5" cy="-45.5" rx="27" ry="18"/>
<text text-anchor="middle" x="253.5" y="-40.08" font-family="Times New Roman,serif" font-size="14.00">*</text>
</g>
<!-- 2356028743888*&#45;&gt;2356028743888 -->
<g id="edge2" class="edge">
<title>2356028743888*&#45;&gt;2356028743888</title>
<path fill="none" stroke="black" d="M280.65,-45.5C287.8,-45.5 296.01,-45.5 304.75,-45.5"/>
<polygon fill="black" stroke="black" points="304.56,-49 314.56,-45.5 304.56,-42 304.56,-49"/>
</g>
<!-- 2356029477648 -->
<g id="node6" class="node">
<title>2356029477648</title>
<polygon fill="none" stroke="black" points="633,-54.5 633,-90.5 822.75,-90.5 822.75,-54.5 633,-54.5"/>
<text text-anchor="middle" x="644.38" y="-67.2" font-family="Times New Roman,serif" font-size="14.00">c</text>
<polyline fill="none" stroke="black" points="655.75,-54.75 655.75,-90.5"/>
<text text-anchor="middle" x="698.25" y="-67.2" font-family="Times New Roman,serif" font-size="14.00">data &#45;0.1000</text>
<polyline fill="none" stroke="black" points="740.75,-54.75 740.75,-90.5"/>
<text text-anchor="middle" x="781.75" y="-67.2" font-family="Times New Roman,serif" font-size="14.00">grad 0.9901</text>
</g>
<!-- 2356029477648&#45;&gt;2356028741136tanh -->
<g id="edge4" class="edge">
<title>2356029477648&#45;&gt;2356028741136tanh</title>
<path fill="none" stroke="black" d="M823.14,-72.5C831.46,-72.5 839.51,-72.5 846.91,-72.5"/>
<polygon fill="black" stroke="black" points="846.77,-76 856.77,-72.5 846.77,-69 846.77,-76"/>
</g>
<!-- 2356029477648+&#45;&gt;2356029477648 -->
<g id="edge3" class="edge">
<title>2356029477648+&#45;&gt;2356029477648</title>
<path fill="none" stroke="black" d="M597.44,-72.5C604.59,-72.5 612.78,-72.5 621.49,-72.5"/>
<polygon fill="black" stroke="black" points="621.26,-76 631.26,-72.5 621.26,-69 621.26,-76"/>
</g>
<!-- 2356029536656 -->
<g id="node8" class="node">
<title>2356029536656</title>
<polygon fill="none" stroke="black" points="0,-55.5 0,-91.5 190.5,-91.5 190.5,-55.5 0,-55.5"/>
<text text-anchor="middle" x="11.75" y="-68.2" font-family="Times New Roman,serif" font-size="14.00">b</text>
<polyline fill="none" stroke="black" points="23.5,-55.75 23.5,-91.5"/>
<text text-anchor="middle" x="66" y="-68.2" font-family="Times New Roman,serif" font-size="14.00">data &#45;3.0000</text>
<polyline fill="none" stroke="black" points="108.5,-55.75 108.5,-91.5"/>
<text text-anchor="middle" x="149.5" y="-68.2" font-family="Times New Roman,serif" font-size="14.00">grad 1.9801</text>
</g>
<!-- 2356029536656&#45;&gt;2356028743888* -->
<g id="edge5" class="edge">
<title>2356029536656&#45;&gt;2356028743888*</title>
<path fill="none" stroke="black" d="M190.75,-56.57C199.54,-54.99 208.04,-53.47 215.78,-52.08"/>
<polygon fill="black" stroke="black" points="216.16,-55.57 225.39,-50.36 214.93,-48.68 216.16,-55.57"/>
</g>
<!-- 2356029537232 -->
<g id="node9" class="node">
<title>2356029537232</title>
<polygon fill="none" stroke="black" points="0.75,-0.5 0.75,-36.5 189.75,-36.5 189.75,-0.5 0.75,-0.5"/>
<text text-anchor="middle" x="11.75" y="-13.2" font-family="Times New Roman,serif" font-size="14.00">a</text>
<polyline fill="none" stroke="black" points="22.75,-0.75 22.75,-36.5"/>
<text text-anchor="middle" x="63" y="-13.2" font-family="Times New Roman,serif" font-size="14.00">data 2.0000</text>
<polyline fill="none" stroke="black" points="103.25,-0.75 103.25,-36.5"/>
<text text-anchor="middle" x="146.5" y="-13.2" font-family="Times New Roman,serif" font-size="14.00">grad &#45;2.9702</text>
</g>
<!-- 2356029537232&#45;&gt;2356028743888* -->
<g id="edge6" class="edge">
<title>2356029537232&#45;&gt;2356028743888*</title>
<path fill="none" stroke="black" d="M189.85,-34.67C199.02,-36.26 207.89,-37.79 215.94,-39.18"/>
<polygon fill="black" stroke="black" points="215.13,-42.59 225.58,-40.85 216.32,-35.7 215.13,-42.59"/>
</g>
</g>
</svg>
